<svg data-img="" width="650" height="450" viewBox="0 0 1155.5 785" style="max-width:100%;height:auto" aria-labelledby="svg-expl" role="img">
<desc id="svg-expl">Is above-the-fold? Inline in HTML. Is less-than-equal to 4 kB / used once? Inline in HTML. Has static colors? Use the &lt;img&gt; tag. Loaded from same-site domain? Use SVG sprites. If nothing matches, use CSS background-image/mask-image.</desc>
<path fill="none" stroke="currentcolor" stroke-linecap="round" d="M71.25 10h217.5m-217.5 0h217.5m0 0c15.5 0 23.25 7.75 23.25 23.25M288.75 10c15.5 0 23.25 7.75 23.25 23.25m0 0v46.5m0-46.5v46.5m0 0c0 15.5-7.75 23.25-23.25 23.25M312 79.75c0 15.5-7.75 23.25-23.25 23.25m0 0H71.25m217.5 0H71.25m0 0C55.75 103 48 95.25 48 79.75M71.25 103C55.75 103 48 95.25 48 79.75m0 0v-46.5m0 46.5v-46.5m0 0C48 17.75 55.75 10 71.25 10M48 33.25C48 17.75 55.75 10 71.25 10"></path><text x="71.8" fill="currentcolor" dominant-baseline="text-before-edge" font-family="serif" font-size="20" style="white-space:pre" text-anchor="middle" transform="translate(108.2 44)">Is above-the-fold?</text>
<path fill="none" stroke="currentcolor" stroke-linecap="round" d="M33.25 682h217.5m-217.5 0h217.5m0 0c15.5 0 23.25 7.75 23.25 23.25M250.75 682c15.5 0 23.25 7.75 23.25 23.25m0 0v46.5m0-46.5v46.5m0 0c0 15.5-7.75 23.25-23.25 23.25M274 751.75c0 15.5-7.75 23.25-23.25 23.25m0 0H33.25m217.5 0H33.25m0 0C17.75 775 10 767.25 10 751.75M33.25 775C17.75 775 10 767.25 10 751.75m0 0v-46.5m0 46.5v-46.5m0 0c0-15.5 7.75-23.25 23.25-23.25M10 705.25c0-15.5 7.75-23.25 23.25-23.25"></path><text x="69.14" fill="currentcolor" dominant-baseline="text-before-edge" font-family="serif" font-size="20" style="white-space:pre" text-anchor="middle" transform="translate(72.86 716)"><a href="#performance-vs-time-to-load-to-inline-or-not-to-inline">Inline in HTML</a></text>
<path fill="none" stroke="currentcolor" stroke-linecap="round" d="M277.25 185h217.5m-217.5 0h217.5m0 0c15.5 0 23.25 7.75 23.25 23.25M494.75 185c15.5 0 23.25 7.75 23.25 23.25m0 0v46.5m0-46.5v46.5m0 0c0 15.5-7.75 23.25-23.25 23.25M518 254.75c0 15.5-7.75 23.25-23.25 23.25m0 0h-217.5m217.5 0h-217.5m0 0c-15.5 0-23.25-7.75-23.25-23.25M277.25 278c-15.5 0-23.25-7.75-23.25-23.25m0 0v-46.5m0 46.5v-46.5m0 0c0-15.5 7.75-23.25 23.25-23.25M254 208.25c0-15.5 7.75-23.25 23.25-23.25"></path><text x="124.08" fill="currentcolor" dominant-baseline="text-before-edge" font-family="serif" font-size="20" style="white-space:pre" text-anchor="middle" transform="translate(261.92 218.5)">Is ≤ 4 kB &amp; used once?</text>
<g stroke-linecap="round" mask="url(#a)">
<path fill="none" stroke="currentcolor" d="M297.78 106c-.05 5.83-.2 22.13-.28 35l-.23 42.19m.51-77.19c-.05 5.83-.2 22.13-.28 35l-.23 42.19"></path>
<path fill="currentcolor" fill-rule="evenodd" d="M297.27 183.19 291 169.57l12.68.06-6.41 13.56"></path>
<path fill="none" stroke="currentcolor" d="M297.27 183.19 291 169.57m6.27 13.62L291 169.57m0 0 12.68.06m-12.68-.06 12.68.06m0 0-6.41 13.56m6.41-13.56-6.41 13.56m0 0s0 0 0 0m0 0s0 0 0 0"></path>
</g>
<mask id="a">
<path fill="#fff" d="M0 0h398.29v283.19H0z"></path>
<path d="M289.33 131h16.34v20h-16.34z"></path>
</mask><text x="8.17" fill="currentcolor" dominant-baseline="text-before-edge" font-family="serif" font-size="20" style="white-space:pre" text-anchor="middle" transform="translate(289.33 131)">no</text>
<g stroke-linecap="round" mask="url(#b)">
<path fill="none" stroke="currentcolor" d="m69.44 107.28.45 569.22m-.45-569.22.45 569.22"></path>
<path fill="currentcolor" fill-rule="evenodd" d="m69.89 676.5-6.35-13.58 12.68-.01-6.33 13.59"></path>
<path fill="none" stroke="currentcolor" d="m69.89 676.5-6.35-13.58m6.35 13.58-6.35-13.58m0 0 12.68-.01m-12.68 0h12.68m0 0-6.33 13.59m6.33-13.6-6.33 13.6m0 0s0 0 0 0m0 0s0 0 0 0"></path>
</g>
<mask id="b">
<path fill="#fff" d="M0 0h169.89v776.5H0z"></path>
<path d="M54.07 379.39h31.18v25H54.07z"></path>
</mask><text x="15.59" fill="currentcolor" dominant-baseline="text-before-edge" font-family="serif" font-size="20" style="white-space:pre" text-anchor="middle" transform="translate(54.07 379.39)">yes</text>
<g stroke-linecap="round" mask="url(#c)">
<path fill="none" stroke="currentcolor" d="M255.82 276.86c-.05 18.52.2 44.53-.32 111.14-.53 66.6-2.33 240.41-2.8 288.5m3.12-399.64c-.05 18.52.2 44.53-.32 111.14-.53 66.6-2.33 240.41-2.8 288.5"></path>
<path fill="currentcolor" fill-rule="evenodd" d="m252.7 676.5-6.2-13.66 12.67.13-6.47 13.53"></path>
<path fill="none" stroke="currentcolor" d="M252.7 676.5c-2.4-5.3-4.8-10.6-6.2-13.66m6.2 13.66-6.2-13.66m0 0 12.67.13m-12.67-.13 12.67.13m0 0-6.47 13.53m6.47-13.53-6.47 13.53m0 0s0 0 0 0m0 0s0 0 0 0"></path>
</g>
<mask id="c">
<path fill="#fff" d="M0 0h358.95v776.5H0z"></path>
<path d="M243.03 378h24.94v20h-24.94z"></path>
</mask><text x="12.47" fill="currentcolor" dominant-baseline="text-before-edge" font-family="serif" font-size="20" style="white-space:pre" text-anchor="middle" transform="translate(243.03 378)">yes</text>
<path fill="none" stroke="currentcolor" stroke-linecap="round" d="M353.25 675.5h208.5m-208.5 0h208.5m0 0c15.5 0 23.25 7.75 23.25 23.25m-23.25-23.25c15.5 0 23.25 7.75 23.25 23.25m0 0v46.5m0-46.5v46.5m0 0c0 15.5-7.75 23.25-23.25 23.25M585 745.25c0 15.5-7.75 23.25-23.25 23.25m0 0h-208.5m208.5 0h-208.5m0 0c-15.5 0-23.25-7.75-23.25-23.25m23.25 23.25c-15.5 0-23.25-7.75-23.25-23.25m0 0v-46.5m0 46.5v-46.5m0 0c0-15.5 7.75-23.25 23.25-23.25M330 698.75c0-15.5 7.75-23.25 23.25-23.25"></path><text x="94.27" fill="currentcolor" dominant-baseline="text-before-edge" font-family="serif" font-size="20" style="white-space:pre" text-anchor="middle" transform="translate(363.23 709.5)"><a href="#using-img-to-load-the-svg">&lt;img loading="lazy"&gt;</a></text>
<path fill="none" stroke="currentcolor" stroke-linecap="round" d="M499.25 354h217.5m-217.5 0h217.5m0 0c15.5 0 23.25 7.75 23.25 23.25M716.75 354c15.5 0 23.25 7.75 23.25 23.25m0 0v46.5m0-46.5v46.5m0 0c0 15.5-7.75 23.25-23.25 23.25M740 423.75c0 15.5-7.75 23.25-23.25 23.25m0 0h-217.5m217.5 0h-217.5m0 0c-15.5 0-23.25-7.75-23.25-23.25M499.25 447c-15.5 0-23.25-7.75-23.25-23.25m0 0v-46.5m0 46.5v-46.5m0 0c0-15.5 7.75-23.25 23.25-23.25M476 377.25c0-15.5 7.75-23.25 23.25-23.25"></path><text x="91.34" fill="currentcolor" dominant-baseline="text-before-edge" font-family="serif" font-size="20" style="white-space:pre" text-anchor="middle" transform="translate(516.66 388)">Has static colors?</text>
<path fill="none" stroke="currentcolor" stroke-linecap="round" d="M632.75 678h208.5m-208.5 0h208.5m0 0c15.5 0 23.25 7.75 23.25 23.25M841.25 678c15.5 0 23.25 7.75 23.25 23.25m0 0v46.5m0-46.5v46.5m0 0c0 15.5-7.75 23.25-23.25 23.25m23.25-23.25c0 15.5-7.75 23.25-23.25 23.25m0 0h-208.5m208.5 0h-208.5m0 0c-15.5 0-23.25-7.75-23.25-23.25M632.75 771c-15.5 0-23.25-7.75-23.25-23.25m0 0v-46.5m0 46.5v-46.5m0 0c0-15.5 7.75-23.25 23.25-23.25m-23.25 23.25c0-15.5 7.75-23.25 23.25-23.25"></path><text x="96.78" fill="currentcolor" dominant-baseline="text-before-edge" font-family="serif" font-size="20" style="white-space:pre" text-anchor="middle" transform="translate(640.22 712)"><a href="#svg-sprites--using-use" fill="currentcolor">SVG sprite &amp; &lt;use&gt;</a></text>
<path fill="none" stroke="currentcolor" stroke-linecap="round" d="M661.25 522h217.5m-217.5 0h217.5m0 0c15.5 0 23.25 7.75 23.25 23.25M878.75 522c15.5 0 23.25 7.75 23.25 23.25m0 0v46.5m0-46.5v46.5m0 0c0 15.5-7.75 23.25-23.25 23.25M902 591.75c0 15.5-7.75 23.25-23.25 23.25m0 0h-217.5m217.5 0h-217.5m0 0c-15.5 0-23.25-7.75-23.25-23.25M661.25 615c-15.5 0-23.25-7.75-23.25-23.25m0 0v-46.5m0 46.5v-46.5m0 0c0-15.5 7.75-23.25 23.25-23.25M638 545.25c0-15.5 7.75-23.25 23.25-23.25"></path><text x="117.49" fill="currentcolor" dominant-baseline="text-before-edge" font-family="serif" font-size="20" style="white-space:pre" text-anchor="middle" transform="translate(652.51 556)">Loaded from same-site?</text>
<path fill="none" stroke="currentcolor" stroke-linecap="round" d="M913.75 677h208.5m-208.5 0h208.5m0 0c15.5 0 23.25 7.75 23.25 23.25M1122.25 677c15.5 0 23.25 7.75 23.25 23.25m0 0v46.5m0-46.5v46.5m0 0c0 15.5-7.75 23.25-23.25 23.25m23.25-23.25c0 15.5-7.75 23.25-23.25 23.25m0 0h-208.5m208.5 0h-208.5m0 0c-15.5 0-23.25-7.75-23.25-23.25M913.75 770c-15.5 0-23.25-7.75-23.25-23.25m0 0v-46.5m0 46.5v-46.5m0 0c0-15.5 7.75-23.25 23.25-23.25m-23.25 23.25c0-15.5 7.75-23.25 23.25-23.25"></path><a transform="translate(915.39 698.5)" href="#in-the-case-of-cors-css-to-the-rescue" fill="currentcolor"><text x="102.61" fill="currentcolor" dominant-baseline="text-before-edge" font-family="serif" font-size="20" style="white-space:pre" text-anchor="middle">CSS `mask-image` or </text><text x="102.61" y="25" fill="currentcolor" dominant-baseline="text-before-edge" font-family="serif" font-size="20" style="white-space:pre" text-anchor="middle">`filter`</text></a>
<g stroke-linecap="round" mask="url(#d)">
<path fill="none" stroke="currentcolor" d="M734.8 618.5c-.14 3.67-.6 12.25-.8 22-.2 9.75-.32 30.42-.38 36.5m1.17-58.5c-.13 3.67-.6 12.25-.79 22-.2 9.75-.32 30.42-.38 36.5"></path>
<path fill="currentcolor" fill-rule="evenodd" d="m733.62 677-6.23-13.65 12.68.11-6.45 13.54"></path>
<path fill="none" stroke="currentcolor" d="m733.62 677-6.23-13.65m6.23 13.65-6.23-13.65m0 0 12.68.11m-12.68-.11 12.68.11m0 0L733.62 677m6.45-13.54L733.62 677m0 0s0 0 0 0m0 0s0 0 0 0"></path>
</g>
<mask id="d">
<path fill="#fff" d="M0 0h835.96v777H0z"></path>
<path d="M721.53 630.5h24.94v20h-24.94z"></path>
</mask><text x="12.47" fill="currentcolor" dominant-baseline="text-before-edge" font-family="serif" font-size="18" style="white-space:pre" text-anchor="middle" transform="translate(721.53 630.5)">yes</text>
<g stroke-linecap="round" mask="url(#e)">
<path fill="none" stroke="currentcolor" d="m478.54 453.5-.16 217m.16-217-.16 217"></path>
<path fill="currentcolor" fill-rule="evenodd" d="m478.38 670.5-6.33-13.6 12.68.01-6.35 13.59"></path>
<path fill="none" stroke="currentcolor" d="m478.38 670.5-6.33-13.6m6.33 13.6-6.33-13.6m0 0 12.68.01m-12.68-.01 12.68.01m0 0-6.35 13.59m6.35-13.59-6.35 13.59m0 0s0 0 0 0m0 0s0 0 0 0"></path>
</g>
<mask id="e">
<path fill="#fff" d="M0 0h578.69v770.5H0z"></path>
<path d="M465.99 552h24.94v20h-24.94z"></path>
</mask><text x="12.47" fill="currentcolor" dominant-baseline="text-before-edge" font-family="serif" font-size="20" style="white-space:pre" text-anchor="middle" transform="translate(465.99 552)">yes</text>
<g stroke-linecap="round" mask="url(#f)">
<path fill="none" stroke="currentcolor" d="M484 281.5v71m0-71v71"></path>
<path fill="currentcolor" fill-rule="evenodd" d="m484 352.5-6.34-13.59h12.68L484 352.5"></path>
<path fill="none" stroke="currentcolor" d="m484 352.5-6.34-13.59M484 352.5l-6.34-13.59m0 0h12.68m-12.68 0h12.68m0 0L484 352.5m6.34-13.59L484 352.5m0 0s0 0 0 0m0 0s0 0 0 0"></path>
</g>
<mask id="f">
<path fill="#fff" d="M0 0h584v452.5H0z"></path>
<path d="M475.83 300.5h16.34v20h-16.34z"></path>
</mask><text x="8.17" fill="currentcolor" dominant-baseline="text-before-edge" font-family="serif" font-size="20" style="white-space:pre" text-anchor="middle" transform="translate(475.83 300.5)">no</text>
<g stroke-linecap="round" mask="url(#g)">
<path fill="none" stroke="currentcolor" d="M 700 453.5 c 0 4.33 -0.17 15.5 0 26 s 0.83 30.83 1 36.5 m -1 -63 c 0 4.33 -0.17 15.5 0 26 s 0 30.5 0 32.5"></path>
<path fill="currentcolor" fill-rule="evenodd" d="m701 516.5-6.74-13.4 12.67-.38L701 516.5"></path>
<path fill="none" stroke="currentcolor" d="m478.38 670.5-6.33-13.6m6.33 13.6-6.33-13.6m0 0 12.68.01m-12.68-.01 12.68.01m0 0-6.35 13.59m6.35-13.59-6.35 13.59m0 0s0 0 0 0m0 0s0 0 0 0"></path>
</g>
<mask id="g">
<path fill="#fff" d="M0 0h801v616.5H0z"></path>
<path d="M691.83 469.5h16.34v20h-16.34z"></path>
</mask><text x="8.17" fill="currentcolor" dominant-baseline="text-before-edge" font-family="serif" font-size="18" style="white-space:pre" text-anchor="middle" transform="translate(691.83 469.5)">no</text>
<g stroke-linecap="round" mask="url(#h)">
<path fill="none" stroke="currentcolor" d="M892 619.5c2.17 3.5 6.95 12.33 13 21s19.44 25.83 23.33 31m-36.33-52c2.17 3.5 6.95 12.33 13 21s19.44 25.83 23.33 31"></path>
<path fill="currentcolor" fill-rule="evenodd" d="m928.33 671.5-13.3-6.95 10.08-7.7 3.22 14.65"></path>
<path fill="none" stroke="currentcolor" d="m928.33 671.5-13.3-6.95m13.3 6.95-13.3-6.95m0 0 10.08-7.7m-10.08 7.7 10.08-7.7m0 0 3.22 14.65m-3.22-14.65 3.22 14.65m0 0s0 0 0 0m0 0s0 0 0 0"></path>
</g>
<mask id="h">
<path fill="#fff" d="M0 0h1028.33v771.5H0z"></path>
<path d="M896.83 630.5h16.34v20h-16.34z"></path>
</mask><text x="8.17" fill="currentcolor" dominant-baseline="text-before-edge" font-family="serif" font-size="18" style="white-space:pre" text-anchor="middle" transform="translate(896.83 630.5)">no</text>
</svg>